<?xml version="1.0" encoding="utf-8"?>
<!-- Generator: Adobe Illustrator 17.0.0, SVG Export Plug-In . SVG Version: 6.00 Build 0)  -->
<!DOCTYPE svg PUBLIC "-//W3C//DTD SVG 1.1//EN" "http://www.w3.org/Graphics/SVG/1.1/DTD/svg11.dtd">
<svg version="1.1" id="Layer_1" xmlns="http://www.w3.org/2000/svg" xmlns:xlink="http://www.w3.org/1999/xlink" x="0px" y="0px"
	 width="841.89px" height="416.618px" viewBox="0 0 841.89 416.618" enable-background="new 0 0 841.89 416.618"
	 xml:space="preserve">
<g>
	<path fill="#07B14C" d="M635.084,155.457c-30.983,0-56.186,25.208-56.186,56.194c0,30.983,25.203,56.191,56.186,56.191
		s56.191-25.208,56.191-56.191C691.275,180.665,666.067,155.457,635.084,155.457z"/>
	<path fill="#07B14C" d="M775.305,67.04C736.575,28.073,689.6,8.316,635.682,8.316c-35.546,0-69.175,9.047-99.957,26.888
		c-30.772,17.828-55.301,42.347-72.908,72.873c-17.597,30.523-26.521,64.401-26.521,100.699c0,54.199,19.106,101.65,56.795,141.034
		c37.885,39.588,86.017,59.662,143.064,59.662c54.551,0,101.607-19.519,139.864-58.01c38.232-38.461,57.615-86.068,57.615-141.499
		C833.634,154.061,814.01,105.974,775.305,67.04z M636.155,311.708c-24.247,0-45.144-7.425-63.913-22.728
		c-23.93-19.395-35.566-45.242-35.566-79.017c0-30.528,9.286-54.846,28.392-74.341c19.005-19.398,41.869-28.828,69.899-28.828
		c27.673,0,50.517,9.684,69.839,29.605c19.463,20.062,28.926,43.969,28.926,73.091c0,29.268-9.377,53.13-28.664,72.951
		C685.892,302.135,663.35,311.708,636.155,311.708z"/>
	<path fill="#07B14C" d="M409.128,193.592l-223.491,0.029l-0.353,68.344l107.829,0.196l-4.556,6.141
		c-17.983,24.238-47.297,38.707-78.4,38.707c-53.703,0-97.392-44.091-97.392-98.284c0-53.703,43.689-97.392,97.392-97.392
		c31.103,0,60.411,14.469,78.4,38.71l5.073,6.835h112.093l-9.281-23.205C365.866,57.229,292.743,7.834,210.156,7.834
		C99.386,7.834,9.265,97.952,9.265,208.726s90.121,200.892,200.892,200.892c84.035,0,160.315-51.667,185.497-125.648l3.31-9.859
		l3.101-11.751h0.013C402.077,262.36,412.917,226.228,409.128,193.592z"/>
</g>
</svg>
